<svg xmlns="http://www.w3.org/2000/svg" viewBox="0 0 338.33 32.73"><g id="レイヤー_2" data-name="レイヤー 2"><g id="レイヤー_1-2" data-name="レイヤー 1"><path d="M103.25,5.35l-.13-.21-.35.1H77.91C73.19,5.1,64.35,4.26,61,0a15.65,15.65,0,0,0,5.06,5.55c-.75.12-1.52.27-2.27.45H37.21c-8.85,0-21.9,5.38-16.35,14.86h0l.06.1h0l.06.11,23.6-7.14c.18.08.65.29,1.22.6L14.32,24.06h-3.4L0,27.36H11.17l.11.18.6-.18H33.21c7.84,0,19-4.22,17.57-11.76l.06,0-.1-.18a9.85,9.85,0,0,0-1.21-3L54.19,11a6.88,6.88,0,0,0-1.8,5.88h0l.08.13a9.63,9.63,0,0,0,1.2,3.06h0l.12.21,6.88-2.08L48.17,32.12,56.68,28,66.79,16.38ZM48.91,19.22c-2.08,4.24-8.82,4.84-14.64,4.84H22.8l25.46-7.7A2.46,2.46,0,0,1,48.91,19.22Zm-23.15.16c-1-.41-5.55-2.58-4.25-5.24C23.59,9.9,30.33,9.3,36.15,9.3h20a12.24,12.24,0,0,0-1.62,1.38Zm28.51-6c2.08-4.24,8.83-4.85,14.64-4.85H80L54.85,16.16A2.42,2.42,0,0,1,54.27,13.39Zm3,4.61L88.52,8.54h3.33L58.52,18.62C58.28,18.52,57.81,18.3,57.26,18Z" style="fill:#fff"/><path d="M244.25,9.8l-.08-.11h0l-.08-.1-.26.1H220.75c-8.88,0-22.41,5.15-16.45,14.92l-11.37,4.95,11.26-13L198,18.46l-12.56,14-.11,0,.15.21,24.2-9.45-8.47,9.34,8.51-4.1,6.79-7.67,19.36-7.46.76-.4L218.89,31.77l8.51-4.1L244,9.9Zm-27,10.29,5.93-6.71L217,15.24l-6.91,7.63-.65.26c-.58-.24-5.73-2.5-4.37-5.29,2.08-4.24,8.82-4.85,14.64-4.85h15.68Z" style="fill:#fff"/><path d="M338.33,5.06l-.1-.1h0l-.1-.09L338,5H314.81c-8.88,0-22.19,5.58-16.18,15.37l4.91-1.91s-5.87-2.35-4.42-5.31c2.07-4.24,8.82-4.84,14.63-4.84h17l-1.46,1.18L303.33,23.86,317.21,8.65l-6.16,1.86-17.31,19-.37.21.2.18,6.65-3.7,2.5-1.33.09-.1,25.86-14.38L311.13,29l8.5-4.1L338,5.27Z" style="fill:#fff"/><path d="M10.67,22.4h3.41L19,20.92l-1-1.71h.35a9,9,0,0,1-.43-2.72,8,8,0,0,1,.64-3.14L2.15,24.78V25Z" style="fill:#fff"/><path d="M37.21,4.34h3.6V3.75H3.54v6.72H20.42C24.21,6.45,31.48,4.34,37.21,4.34Z" style="fill:#fff"/><path d="M33.21,29H12.13l-1.62.49L10.23,29H2.15v1.4H40.28V28.08A28.72,28.72,0,0,1,33.21,29Z" style="fill:#fff"/><path d="M309.74,9.82l-6.34,7-.15-.08c-1.41-.72-2.93-1.85-2.93-2.65a.71.71,0,0,1,.08-.32c1.06-2.17,3.93-3.43,8.76-3.87Zm-6.44,6.41,5.32-5.85c-4.25.46-6.88,1.66-7.81,3.55a.33.33,0,0,0,0,.13C300.77,14.47,301.78,15.43,303.3,16.23Z" style="fill:#fff"/><path d="M281.2,24.29a55.47,55.47,0,0,1-16.55,2.26c-9.08,0-15.08-.68-19-1.52l12.67-4.92h13.13l.27-.09h.77a26,26,0,0,0,4.64-.44Z" style="fill:#fff"/><path d="M187.62,10.2a2.28,2.28,0,0,1,.45,0,3.76,3.76,0,0,1-.37.67,5.18,5.18,0,0,1-3.76,2.37l-.46-2.08H172.62l2.08-1Z" style="fill:#fff"/><path d="M172.43,19.74h4.21l.25-.08h.69a24,24,0,0,0,9.94-2.23A14.86,14.86,0,0,0,189.89,16a10.94,10.94,0,0,0,1.61,4.8l0,0-.38.22c-3.66,2-10.23,4.39-20.79,4.39q-5.31,0-9.65-.34Z" style="fill:#fff"/><path d="M150.58,23.51c-2.9-.83-3.93-1.67-4.25-2,.45-.53,3.19-1.77,10.13-1.77h2.38Z" style="fill:#fff"/><path d="M139.73,10.54h.94l-17.75,6.9-1.16-.39-.72,1-.11.15-2.53,1a1.31,1.31,0,0,1-.06-.38,1.54,1.54,0,0,1,.08-.46C120.87,11.3,134.14,10.54,139.73,10.54Z" style="fill:#fff"/><path d="M113.94,20.24l-1.89-2.11a16.07,16.07,0,0,0,1.59-.9c0,.19,0,.39,0,.59A9.07,9.07,0,0,0,113.94,20.24Z" style="fill:#fff"/><path d="M202.53,24.28l-4.71,1.84,3.89-4.49.09.45a10.68,10.68,0,0,0,.64,2Zm-3.18.76,2.58-1a11.37,11.37,0,0,1-.47-1.43Z" style="fill:#fff"/><path d="M211.94,9.72l-1.13.43a16.73,16.73,0,0,0-7.46,5.16l0,.06-4.6,1.39-1.59-.55-.11.17-.18-.11c-1.3-.79-2.11-1.63-2.11-2.19a.64.64,0,0,1,.09-.32c1.77-3.62,8.47-4,13.35-4ZM203,15a16.3,16.3,0,0,1,6.56-4.81h-1.44c-4.76,0-11.29.39-12.95,3.79a.41.41,0,0,0,0,.12c0,.24.47.9,1.71,1.69l.07-.09,1.76.61Z" style="fill:#fff"/><path d="M84.28,14.41H79.87l-.28.08h-.86l24-7.26Z" style="fill:#fff"/><path d="M83.45,19.19h2.08L68.38,25.86a9.26,9.26,0,0,1-.94-.44Z" style="fill:#fff"/><path d="M115.16,11.6c-1.63,3.33-6.39,4.23-11.09,4.42l-.39-.12.12.13-2.14,0H94.25L114,8.4C115,9.25,115.76,10.37,115.16,11.6Z" style="fill:#fff"/><path d="M76.5,19.21,65.21,23.6a1.17,1.17,0,0,1-.16-.55C65.05,20.14,71.51,19.33,76.5,19.21Z" style="fill:#fff"/><path d="M159.9,8.33l-38.83,15.1c-.33-.14-.64-.29-.93-.44L156.42,8.88h1.67Z" style="fill:#fff"/><path d="M41.57,3.75H55.06V19.88c0,3.44,2.54,4.52,6.94,4.52s6.94-1.08,6.94-4.52V3.75H82.43V20.3c0,8.47-6.56,11.05-20.43,11.05s-20.43-2.58-20.43-11Z" style="fill:#fff"/><path d="M144.09,2.82c8.18,0,23.35.45,23.35,14.26s-15.17,14.27-23.35,14.27-23.34-.45-23.34-14.27S135.91,2.82,144.09,2.82Zm0,21.81c5.5,0,9-2.13,9-7.55s-3.5-7.54-9-7.54-9,2.13-9,7.54S138.59,24.63,144.09,24.63Z" style="fill:#fff"/><path d="M233.93,3.75h16.56L265,30.42H250.68l-1.44-3.07H235.18l-1.44,3.07H219.39Zm8.33,8.07h-.1l-4,9h8.14Z" style="fill:#fff"/><path d="M313.25,2.82c8.18,0,23.35.45,23.35,14.26s-15.17,14.27-23.35,14.27S289.9,30.9,289.9,17.08,305.07,2.82,313.25,2.82Zm0,21.81c5.5,0,9-2.13,9-7.55s-3.49-7.54-9-7.54-9,2.13-9,7.54S307.75,24.63,313.25,24.63Z" style="fill:#fff"/><polygon points="111.69 3.75 104.23 3.75 105.62 6.11 111.69 3.75" style="fill:#fff"/><path d="M109.36,30.42v-.8c-.75.29-1.51.55-2.27.8Z" style="fill:#fff"/><path d="M118.39,7.39a8.82,8.82,0,0,1,.26,1.74,19.94,19.94,0,0,1,3.2-1.66V3.75h-5.21l2.53,3.34Z" style="fill:#fff"/><path d="M170.35,29h-1.48v1.48h12.25V27.58A41.68,41.68,0,0,1,170.35,29Z" style="fill:#fff"/><polygon points="172.81 15.19 177.17 13.19 168.87 13.19 168.87 15.19 172.81 15.19" style="fill:#fff"/><path d="M183.41,17.19l2.9,7.7a31.77,31.77,0,0,0,5.62-2.38A20,20,0,0,0,197,18.73L192.93,20a8,8,0,0,1-1.28-5.72L191,12.42C189.8,14.61,186.76,16.27,183.41,17.19Z" style="fill:#fff"/><path d="M177.58,18h-.93l-.26.08h-4.32l-3.2,1.47V27.1h1.48a59.33,59.33,0,0,0,10.77-.93V17.69A20.84,20.84,0,0,1,177.58,18Z" style="fill:#fff"/><polygon points="168.87 6.29 173.59 6.29 179.04 6.29 188.78 6.29 187.87 3.75 168.87 3.75 168.87 6.29" style="fill:#fff"/><path d="M209.22,5h8.93V3.75h-19l-1.39,3.87A27.06,27.06,0,0,1,209.22,5Z" style="fill:#fff"/><polygon points="168.87 8.65 169.08 8.54 168.87 8.54 168.87 8.65" style="fill:#fff"/><path d="M208.16,8.29c-3.91,0-8.22.27-11.27,1.73l-2.3,6.38a12.33,12.33,0,0,0,2.85,1.82,3.18,3.18,0,0,0,.23-.3l.51.17-.26.34h0a19.07,19.07,0,0,1-5.61,4.37,60.5,60.5,0,0,1-5.69,2.86l1.78,4.74h10.24l7.17-19.05h.1V30.42h12.25V8.29Z" style="fill:#fff"/><polygon points="286.13 3.75 279.81 3.75 277.8 6.99 286.13 3.75" style="fill:#fff"/><polygon points="270.56 9.8 266.8 3.75 251.39 3.75 259.57 14.08 270.56 9.8" style="fill:#fff"/><path d="M288.3,5.59l-.22.09c2.4,5.35-1.75,9.17-7.11,11.14l.18.06,2,2.18L295.22,3.75h-8.31Z" style="fill:#fff"/><path d="M266.56,30.16v.26h13.49V27.53A43.85,43.85,0,0,1,266.56,30.16Z" style="fill:#fff"/><path d="M286.94,10.86c-1.63,3.33-6.39,4.22-11.08,4.42l-.39-.12.11.13-2.14,0H266l19.71-7.66C286.78,8.51,287.55,9.63,286.94,10.86Z" style="fill:#fff"/><path d="M284.79,7a9,9,0,0,1,.74.52l-20.17,7.84h-2.08Z" style="fill:#fff"/><path d="M248.28,18.47,237,22.86a1.2,1.2,0,0,1-.16-.55C236.83,19.4,243.29,18.59,248.28,18.47Z" style="fill:#fff"/><path d="M96.75,26.29a52.07,52.07,0,0,0,12.67-2.15l-4.09-4.71a26.06,26.06,0,0,1-4.64.44h-.77l-.28.09H96.75Z" style="fill:#fff"/><path d="M103.68,17.17l.12.13-2.14,0H96.75v4.79h2.89l.28-.08h.77a26.09,26.09,0,0,0,4.64-.45l6.45,4.31a72.56,72.56,0,0,1-15,2.55v2h12.87V16.58a28.17,28.17,0,0,1-5.55.71Z" style="fill:#fff"/><path d="M103.12,6.41l.13.21-17,5.12H92L102.7,8.51l-8.3,3.23h2.35v4.62L114,9.67a3.53,3.53,0,0,1,1.38,2.07h6.85V5h-.35V8.74a19.94,19.94,0,0,0-3.2,1.66,8.82,8.82,0,0,0-.26-1.74l.78-.3L116.64,5h-5l-6.06,2.36L104.23,5H84.17V6.51h18.6Z" style="fill:#fff"/><polygon points="88.52 9.81 84.17 11.13 84.17 11.74 85.47 11.74 91.85 9.81 88.52 9.81" style="fill:#fff"/><path d="M285.71,10a.52.52,0,0,1-.07.24c-1.06,2.16-4.19,3.34-9.56,3.6H276l-.59-.18a.2.2,0,0,1-.15-.19.19.19,0,0,1,.13-.2l9.86-3.84a.2.2,0,0,1,.24.08A.93.93,0,0,1,285.71,10Zm-9.58,3.42c5.17-.26,8.16-1.36,9.14-3.36a.15.15,0,0,0,0-.06.4.4,0,0,0,0-.13Z" style="fill:#fff"/><path d="M113.92,10.72a.47.47,0,0,1-.06.24c-1.06,2.17-4.19,3.34-9.57,3.6h-.07l-.59-.18a.2.2,0,0,1-.14-.19.2.2,0,0,1,.13-.2l9.86-3.83a.19.19,0,0,1,.24.07A1,1,0,0,1,113.92,10.72Zm-9.57,3.42c5.16-.25,8.15-1.35,9.14-3.36a.15.15,0,0,0,0-.06.28.28,0,0,0-.05-.12Z" style="fill:#fff"/><path d="M215.33,14.83a.24.24,0,0,1-.05.14l-5.82,6.42a.2.2,0,0,1-.25,0c-1.41-.71-2.94-1.84-2.94-2.64a.65.65,0,0,1,.09-.32c1-2.16,3.91-3.42,8.74-3.85a.22.22,0,0,1,.21.11A.36.36,0,0,1,215.33,14.83ZM209.26,21l5.35-5.9c-4.3.45-7,1.65-7.88,3.57a.28.28,0,0,0,0,.13C206.69,19.21,207.67,20.17,209.26,21Z" style="fill:#fff"/><path d="M166.67,18.08a.21.21,0,0,1-.12.19l-.66.3a.21.21,0,0,1-.25-.06.21.21,0,0,1,0-.26l.24-.3a.2.2,0,0,1,.16-.07h.41a.21.21,0,0,1,.21.16Z" style="fill:#fff"/></g></g></svg>